<?xml version="1.0" encoding="UTF-8"?><svg id="Layer_1" xmlns="http://www.w3.org/2000/svg" viewBox="0 0 595.28 841.89"><defs><style>.cls-1{fill:#030303;stroke:#3e3e3e;stroke-miterlimit:10;}</style></defs><polygon class="cls-1" points="369.11 461.01 368.83 458.33 370.19 459.06 369.11 461.01"/><path class="cls-1" d="M369.11,461.01l1.08-1.95c-9.75-4.42-2.8-15.57-12.92-18.83l-.23-24.31-1.66-2.73-3.41.75c.39-3.46,1.19-6.91,2.41-10.73l-1.27-2.95-4.09,2.33c.16-2.87.98-8.64,1.55-11.48l-4.62,3.71,2.56-11.13-5.42,2.33c.34-1.55,1.68-8.74,2.38-10.03-1.67-1-10.22-.06-12.14,0l3.54-4.02c-6.51-.93-21.02-5.72-27.3-7.99l1.99-2.74c-6.95-2.99-22.46-10.87-29.3-14.45-4.78-2.61-9.41-4.93-15.18-4.44,3.95,2.24,11.57,4.59,15.24,7.32-.52,30.49-12.19,41.3-34.45,59.51,0,0,.11,11.75.11,11.75,4.81,9.06,8.76,27.7,23.46,20.23,6.74,2.69,12.8,7.49,13.45,15.94l-7.27-4.02c0-3.9-3.98-7.29-6.96-5.03,4.21,3.8,7.88,5.73,8.59,11.54l-7.38-2.38c-1.21-3.86-1.97-5.56-3.78-7.87-2.81-.15-5.63-.11-7.56.51l6.94,1.3,5.14,9.21-4.97-1.89-14.58-.23-3.02-6-5.89.24-10.6-20.18c-3.3-6.78-18.04-19.39-8.48-26.73,4.21-5.22,8.29-10.95,7.97-17.61-9.79,6.33-19.41,11.81-29.86,16.77-6.46,2.29-11.3,6.59-13.95,12.76l-2.79,14.22-.05,10.91c.21,4.27,2.52,7.25,6.99,7.56,7.94.52,14.26,7.82,12.72,15.42l-4.12-2.47-1.19,6.47c-3.93-3.01-6.5-4.13-9.85-3.98l-1.25,5.53-3.4-4.44-11.3-2.73c-2.05-2.85-2.33-7.68-4.16-10.93l-4.73.39c1.14-9.68,3.55-22.03,3.46-31.69,0,0-1.88-19.13-1.88-19.13-.95-10.66,19.59-3.29,26.62-33.54l-1.97,1.82-1.91-.63,1.37-2.38.68-3.32-5.48.76,5.14-14.29-5.59,1.97,6.74-22.66-4.29,1.48c2.72-6.55,9.86-21.89,13.81-27.54-12.86,2.51-28.31,7.27-40.86,1.58l3.22-3.7c-8.05-.9-13.65-1.95-19.48-5.82l5.65-1.4c-8.27-4.63-14.54-9.88-18.87-17.82l4.04.37.58-3.45-2.07.66c-5.12-3.77-6.47-9.69-8.36-16.16l4.74,3c-3.09-8.49-4.64-15.18-4.14-24.36l4.29,3.87c-.01-7.26-.13-13.41,2.86-18.78l2.95,3.71c.66-6.87,2.29-12.55,7.7-16.57l.8,3.84,1.48.12c3-6.64,6.85-11.12,13.26-14.95l-.24,4.73c8.39-8.99,20.86-8.94,31.81-9.57l-2.69,3.16c9.9-.57,19.14,2.64,27.18,9.42l-3.63,2.64c13.07,4.63,17.31,25.17,13.25,36.87-3.46,10.82-13.1,19.57-24.77,18.42,22.2-28.76-22.18-46.8-31.19-14.01-2.16,16.33,10.58,30.13,25.68,35.07,0,0,19.27-.03,19.27-.03.46-.4,6.75-3.77,6.8-4.35,0,0,14.4-5.86,14.4-5.86,17.15-9.31,37.73-9.44,56.58-6.17,0,0,26.99,4.11,26.99,4.11,7.12-.92,21.44-3.75,28.45-5.45l-2.6-3.51c10.73-.27,23.55.38,29.38-11.12-12.36-2.51-25.38,9.33-35.32-2.28-.18-1.97,1.08-5.08,2.14-5.87l3.13,2.17,1.33-3.71c2.13,2.11,4.35,2.7,7.02,1.15l11.45-3.65c-9.99-5.54-20.98,4.69-30.8-.38-3.7-2.43-6.85-5.64-4.21-10.54,10.89,12.55,18.1-5.83,34,6.35-3.73-5.1-7.42-8.8-11.83-12l-8.09-1.29-1.81,6.88c-3.66-5.95-4.88-8.91-9.05-13.1-.56-4.7-5.41-14.18-.21-17.78l7.59,3.35,20.16.26c12.57-11.07,31.91,3.17,44.45-7.68l1.08,1.01-7.68,6.5c2.2.57,3.36-.15,4.69-2.05,11.29-5.01,22.8-2.95,33.59-10.43l-2.43,10.35-3.51.5.13,2.11,2.96-1.87c-1.59,3.08-3.21,4.76-5.18,6.19l-1.98,4.53-.46-3.44-1.88,2.18c-.14.18.28.31,1.23.62l-1.72,1.67-.84-.82-8.12,6.5c3.39-.42,4.99-2.27,8.56-5.78l-.3,2.88c4.82,6.97,14.57,22.11,18.32,29.58l-7.58-2.5,4.88,11.85,3.45,15.74-6.14-3.88,2.02,23.92c-2.57-1.94-4.17-3.58-6.21-5.8.5,4.43,2.54,22.33,3.08,27.09l-7.89-6.52-.73,21.75-2.94-2.01c-2.34,10.83-4.6,21.81-10.29,31.38,0,0-2.3,8.35-2.3,8.35-1.44,14.65-3.01,30.74-1.56,45.38,0,0-.02,18.89-.02,18.89l4.08,9.73,5.54,2.02c8.24-.94,13.51,6.34,13.54,13.85l-2.96.91.2.97-1.3,3.15-2.49-2.24-5.4-.13-.33-7.5c-2.59-1.63-5.59-2.89-8.08-2.93,4.88,2.82,6.7,7.69,9.05,12.07.34-.81-.62,1.48-.85,2.01-5.7-7.79-15.86-.02-20.13-10.44-1-2.64-5.02-14.69-6.12-17.01l-4.4,2.84s-.17-17.1-.17-17.1c-1.25-6.81-4.33-23.53-5.67-30.12l-4.3-4.2,2.82-9.36c1.23-1.7,1.68-3.72,1.24-6.31-3.98,4.52-4.92,11.27-5.24,17.04,0,0-1.65,12.23-1.65,12.23,1.7,13.7-5.8,46.49,12.64,50.69l-2.54,1.67,7.06-.83c4.06,3.25,9.16,10.24,7.05,15.15l-4.82-.82-1.09,4.33-7.73-3.32-2.64,5.28c-2.6-6.26-12.66-3.93-15.59-9.12ZM182.46,200.66c.28.63.14.28-.58-1.49-7.18,7.54-6.37,6.69-9.31,16.52l9.89-15.03ZM422.45,200l-.5.5.5.5.5-.5-.5-.5ZM404.25,209.62c4.23-4.27,8.98-5.66,13.92-8.13-4.94,1.4-12.74,2.01-13.92,8.13ZM419.61,201.48l-.65.02c.59.03,1.39.03,1.98,0-.33-.01-1-.02-1.33-.02ZM169.55,212.02l1.44-1.22,1.84-8.87c-3.19,1.72-3.93,4.92-3.92,8.05-1.62,3.48-2.61,7.27-1.08,11.04,1.52-2.91,1.73-4.96,1.71-9ZM185.59,206.86l4.96-5.01c-5.56.58-8.22,5.01-10.94,10.13l5.98-5.12ZM334.58,202l-.5.5.5.5.5-.5-.5-.5ZM198.73,203.56l-6.77,1.11-7.36,8.68,14.13-9.79ZM374.85,203l.82,1.72,1.35-1.32-2.17-.39ZM419.81,204.75c-2.27-.75-6.51.57-9.79,2.17l1.43,3.2,2.61-.49-1.67-1.26c2,1.42,2.12,1.04,1-.82l1.08,1.44c1.2-1.37,3.24-2.91,4.69-3.35l.64-.9ZM429.44,203.99l-.5.5.5.5.56-.5-.56-.5ZM342.56,204.99l-.5.5.5.5.5-.5-.5-.5ZM370.52,205.99l-.5.5.5.5.5-.5-.5-.5ZM379.1,207.84c-2.08-2.7-5.28-3.15-7.73-.17l7.73.17ZM420.53,206.43l1.09.17-1.09-.17ZM163.38,221.71l.52-14.96c-4.43,4.36-3.41,10.2-.52,14.96ZM207.11,208.65c-2.43-2.13-6.11-1.73-7.27,1.28l7.27-1.28ZM336.91,213.88l-.24-6.57c-3.03,2.46-1.33,4.82.24,6.57ZM417.45,207.86l-.9.62.9.5.5-.5-.5-.62ZM157.82,225.81c.83-5.75,0-11.07-1.7-16.94-2.29,5.71-1.39,11.5,1.7,16.94ZM199.85,209.43c-3.9-.72-7.59.57-8.15,4.24l8.15-4.24ZM387.99,213.2c-1.38-1.46-2.99-2.81-5.62-3.92,1.27,1.81,3.04,3.42,4.83,4.73l.78-.8ZM383.02,213.39l-3.72-3.14-1.83,4.16-3.31-.94-.73-3.65c-1.06,1.97-.66,4.16.69,5.73,3.4.95,4.75-1.33,7.08-2.74l1.31,1.04.52-.46ZM210.28,213.76l1.97-.13-1.28-1.64-9.62-.02-4.11,2.64,13.04-.84ZM213.22,213.98l1.58,2.06.52-1.68-2.1-.38ZM383.52,214.26l-.44.19-.79,1.41,1.46.66.79-1.32-1.02-.94ZM388.54,214l-.18.75,1.24.9.5-1.29-1.56-.36ZM154.06,229.55l-3.29-14.83c-2.63,5.79.34,10.94,3.29,14.83ZM212.75,219.05c-3.13-2.95-5.55-2.54-8.98-2.64l-.38,1.97c1.16.36,8.02.59,9.35.67ZM352.16,218.39l-1.31-2.16-2.44,1.3-.02,1.25,3.17.03.61-.43ZM359.94,222.89l-6.3-7.54c.13,3.88,2.85,6.59,6.3,7.54ZM212.38,218.09l2.02,3.15,1.86.4-.34-2.65-3.54-.9ZM352.29,219.77l.46-.57-.46.57ZM342.18,221.11c.02-1.27-1.97-1.27-1.96,0-.02,1.27,1.97,1.27,1.96,0ZM139.86,220.98c-.03.59-.03,1.39,0,1.98.03-.59.03-1.39,0-1.98ZM143.5,222.01l2.12,3.57.57-2.68-2.69-.9ZM218.5,229.45c-2.25-3.25-4.56-4.79-7.91-7.27l-6.28.78c5.52,2.11,9.09,3.76,14.19,6.49ZM386.5,222.96l-.5.5.5.5.5-.5-.5-.5ZM174.55,232.56l2.54-8.51c-2.47,1.96-5.36,4.72-2.54,8.51ZM178.46,230.06c1.9-1.5,2.85-3.53,2.68-6.21-1.9,1.5-2.85,3.53-2.68,6.21ZM184.02,227.95l3-2.02-1.46-2.1-2.66,2.13,1.11,2ZM420.73,226.05c-1.64-1.78-2.76-2.16-4.98-1.66l4.98,1.66ZM383.02,224.94l1.44,2.09,1.55-.5-.99-1.18-2-.41ZM424.6,231.35l-13-6.67c3.3,4.22,7.78,6.73,13,6.67ZM148.42,229.27c-1.23-1.5-2.38-2.64-3.95-3.41,1.46,4.94,3.31,8.61,7.82,11.18l-3.87-7.77ZM383.94,227.91l-3.19-1.8-2.56,1.21-1.45,1.97,1.92,1.53.83-2.35,4.44-.56ZM219.87,241.45c.19-8.64-6.09-12.29-12.2-14.75l.17,2c5.71,2.64,9.6,7.39,12.03,12.75ZM375.52,226.96l-.5.5.5.5.5-.5-.5-.5ZM170.13,236.2c1.52-3.36,1.43-6.08.63-8.43-1.98,2.65-1.94,5.84-.63,8.43ZM147.67,240.95l-7.26-10.89c.38,4.9,3.56,9.18,7.24,11.94l.02-1.05ZM412.56,233.26l7.54-.87c-3.43-.92-6.12-.57-9.33.07,3.59,4.06,6.16,6.96,10.07,9.17-2.45-3.71-5.3-5.84-8.27-8.37ZM398.84,235.78l-3.48-3.84c-.74,1.68,1.29,3.98,3.48,3.84ZM366.12,232.59l-1.62.97,3.44,5.73,1.62-.97-3.44-5.73ZM210.48,234.71l.55-.5-.55.5ZM349.13,236.76l2.58-.62.11-2.15c-.48.46-2.47,2.15-2.7,2.77ZM357.82,235.82c-1.88-1.29-2.56-1.46-3.12-.89l3.12.89ZM167.25,241.27l-.17-6.44-2.02,3.75,2.18,2.69ZM211.75,234.94l-.5.5.5.5.5-.5-.5-.49ZM349.08,235.37l-1.55-.49-1.21,2.9c.46-.38,2.55-1.87,2.76-2.41ZM353.55,234.94l-.5.5.5.5.5-.5-.5-.5ZM395,235.38l-1.56-.5-.52,1.61,1.59.48.49-1.6ZM212.88,235.84l-.71.66c.67,1.15,3.13,5.24,3.52,6.43l1.71-1.53-4.52-5.56ZM334.58,236.94l-.5.5.5.5.5-.5-.5-.5ZM344.67,237.43l-7.25-.03c1.4.89,2.24,1.26,4.16,2l3.09-1.97ZM395.48,236.95l-.48,1.08,5.06,3.81c-.34-3.39-2.53-4.07-4.58-4.89ZM149.3,249.27l-10.93-9.97c1.95,5.58,6.19,9.17,10.93,9.97ZM367.99,246.76c2.24.43,4.12.21,6.72-.82.48-2.43.39-4.57.02-7.1l-1.33,5.85-5.41,2.07ZM397.56,248.41c-.67-5.17-4.51-7.99-9.05-9.08l9.05,9.08ZM417,243.61l-5.54-5.14c.22,3.61,2.58,5.57,5.54,5.14ZM149.09,243.01l-.12-1.07.12,1.07ZM392.46,249.53l-7.02-7.61,6.39,9.98.63-2.37ZM427.44,241.94c-.03.59-.03,1.39,0,1.98.03-.59.03-1.39,0-1.98ZM217.66,248.33l1.62-3.3-2.88-2.43,1.25,5.73ZM413.61,250.77c.2-3.49-1.43-6-4.83-7.57l4.83,7.57ZM213.05,253.1c2.77-2.97,2.35-6.14-.24-8.82l.24,8.82ZM431.13,255.55l-4.12-8.95-1.22.89,3.39,7.97c-.65,1.89,1.94,1.5,1.95.09ZM146.27,255.14c-3.95-3.17-6.22-5.03-10.17-7.06,2.83,3.72,6.36,6.51,10.52,9.03,2.42-.76,1.32-1.81-.34-1.97ZM388.89,253.34l-3.43-5.21c.23,3.48,1.4,4.62,3.43,5.21ZM408.06,247.57l-1.62.97,3.44,5.73,1.62-.97-3.44-5.73ZM407.95,256.52c-.87-3.52-2.47-6.23-5.6-7.91l2.8,6.69,2.8,1.23ZM427.56,265.92c.61-5.54-2-10.8-5.48-14.66l5.48,14.66ZM166.15,258.45l-5.46-6.18c.3,3.28,2.42,5.04,5.46,6.18ZM402.04,262.07c.69-3.51.36-6.87-2.17-10.31l2.17,10.31ZM212.64,255.09c-.11-1.1-.14-1.48-.04-.43.24,2.59.26,2.76.04.43ZM397.08,262.67c-.18-3.61-.63-6-1.6-9.02-1.6,3.59-.55,6.57,1.6,9.02ZM136.76,256.28c.07-.78-.11,1.23-.14,1.61l.14-1.61ZM422.75,270.61c.2-6.1-1.85-11.4-5.6-15.22l5.6,15.22ZM138.01,257.66l-.25,1.02c2.74,2.57,5.41,4.85,10.43,3.83l-10.18-4.85ZM166.47,262.56l-4.91-4.12c-.54,3.13,2.23,4.59,4.91,4.12ZM206.76,259.9l-.5.5.5.5.5-.5-.5-.5ZM375.42,265.93l2.84-5.75c-2.51.18-4,3.07-2.84,5.75ZM417.39,276.71c.92-5.79-.07-11.81-4.22-16.4l4.22,16.4ZM382.2,263.87l-2.27-.75-1.66,8.9,3.93-8.15ZM144,266.7l-7.58-2.61c4.17,4.89,9.48,5.98,15.63,5.95l-8.05-3.35ZM167.89,268.26c-2.87-2.36-3.65-2.85-5.17-3.51.53,3.11,2.89,3.97,5.17,3.51ZM410.54,280.98c2.6-5.51,1.81-12.31-2.18-16.77l2.18,16.77ZM382.33,277.72c1.65-4.41,2.2-6.82,2.02-10.14-1.99,3.74-2.47,7.05-2.02,10.14ZM405.47,274.96c1.03-2.42,1.35-5.07-.52-7.7-.91,2.61-.5,4.72.52,7.7ZM379.57,284.77c-2.57-6.82-8.75-10.95-14.74-14.44l-7.03,1.13c12.11.78,14.43,5.74,21.77,13.3ZM171.99,273.56l-6.62-3.01c1.24,2.99,3.4,4.72,6.62,3.01ZM389.06,282.37l-.15-11.66-2.02,1.87.17,11.39,1.99-1.61ZM155.53,274.92c-4.01-.93-12.31-2.09-16.44-2.42l6.03,3.94,10.41-1.52ZM280.98,294.85l10.07-20.56c-5.64,4.79-9.39,12.19-10.07,20.56ZM393.21,291.04c2.92-5.87,2.76-12.16-.05-17.37l.05,17.37ZM264.08,298.56l2.46-11.88,4.75-11.96c-5.72,3.87-9.24,18-7.21,23.83ZM177.01,280.79l-5.8-5.03-1.86,1.32.99,1.77,6.67,1.94ZM253.54,299.93c1.46-6.08,5.29-18.24,7.45-24.15-4.87,3.19-4.14,8.57-6.98,12.72l-.47,11.43ZM283.13,276.76c-4.45-1.77-11.99,17.49-10.71,21.26,2.99-7.93,5.61-13.78,10.71-21.26ZM301,276.49l-2.44-.32c-3.5,5.72-7.26,10.09-8.12,16.99l10.56-16.68ZM326.62,299.97c3.42-8.77,7.66-16.05,13.4-24.38-4.5,2.45-17.38,19.4-13.4,24.38ZM358.25,276.27c-3.69-.89-7.5.77-7.76,4.03l7.76-4.03ZM312.05,277.85l-1.95-.26c-4.48,5.96-8.58,11.51-9.35,19.27,3.35-6.85,6.28-11.92,11.3-19.01ZM318.3,300.78c2.56-8.65,7.19-16.89,12.35-24.03-7.46,3.26-12.28,16.52-12.35,24.03ZM159.41,279.6l-15.54.19c4.37,2.81,10.75,4.59,15.54-.19ZM248.12,299.06l-.16-8.25c1.59-4.13,2.5-7.74,3.05-12.13l-2.92,3.82-2.05,14.55,2.08,2ZM319.82,279.87l-1.67-.71c-4.02,6.19-8.96,11.27-9.57,19.19l11.24-18.48ZM356.97,281.68l2.66-.02-.7-2.55c-4.48,1.85-8.28,4.59-10.98,8.47l9.02-5.9ZM400.98,278.87h-2v17.97h2v-17.97ZM426.39,293.02c1.02-5,.62-9.91-2.14-14.48l.24,9.49,1.9,4.99ZM222.46,282.62l.56-.52-.56.52ZM154.31,288.4l8.1-2.42-.58-1.79-13.67,2.16c1.79,1.18,4.12,1.91,6.15,2.05ZM237.98,301.59l2.04-17.56c-3.72,4.93-4.7,11.92-2.04,17.56ZM187.02,287.83c-3.51-3.05-6.06-3.73-9.01-2.16,3.44,1.33,6.44,2,9.01,2.16ZM358.1,287.17l2.17-.64-1.37-2.04c-4.6,2.56-8.41,5.17-10.75,9.19l9.95-6.51ZM419.39,298.05c1.38-4.3,1.76-8.83-.27-13.41-.76,4.55-.55,8.67.27,13.41ZM407.48,301.08l1.7-1.59-1.13-13.72-1.62.58,1.06,14.72ZM154.96,292.1c6.37,3.4,10.57-.36,15.43-3.02-2.2-1.22-5.1-.12-6.07,1.43l-9.36,1.59ZM230.4,300.65l1.26-10.17,1.73-2.06-1.6-.58-1.86,1.21c-.93,3.44-1.43,7.34.46,11.59ZM415.4,298.3c-.02-3.74.14-7.13-2.41-9.6l1.54,19.94c2.17-2.95,1.41-6.51.87-10.34ZM167.1,296.12c3.71.81,6.83-1.83,8.13-4.79-1.27.57-10,4.93-11.16,5.06l-.49,2.28,3.52-2.54ZM332.49,299.58c1.39-3.07,2.43-6.1,2.28-8.74-4.68,5.34-5.97,12.49-3.43,18.52l1.15-9.78ZM360.94,291.23c-6.12.15-9.16,4.49-11.75,8.74l11.75-8.74ZM225.02,292.55c-3.32.12-4.57,5.13-1.87,8.89l1.87-8.89ZM173.19,298.6c4.99,1.87,7.43-1.51,8.04-4.66l-8.04,4.66ZM187.76,297.2v-1.37s-2.11.38-2.11.38l-6.15,6.61c3.92-1.13,5.81-3.26,8.26-5.62ZM363.07,296.04c-5.35.04-10.67,3.48-12.27,8.8l12.27-8.8ZM186.53,302.85l1.4,1.03,5.31-5.34-.13-1.34-6.58,5.65ZM392.02,306.57c.6-3.5.25-5.23-.58-7.46-1.43,2.38-1.24,5.54.58,7.46ZM173.42,300.84c.02-1.44-2.25-1.44-2.22,0-.02,1.44,2.25,1.44,2.22,0ZM194.24,299.84l1.58,2.06.52-1.68-2.1-.38ZM364.41,300.86l-1.5-1.01c-4.57,3.08-8.81,5.95-11.19,10.94l12.69-9.93ZM215.33,304.68l-2.39-2.04c-.97.92-4.9,6.07-5.8,7.22l8.19-5.18ZM350.11,320.67c3.93-7.56,12.11-11.85,18.26-17.55-6.33,2.18-10.02,6.46-15.55,10.82l-2.71,6.73ZM390.11,322.31c2.23-4.47-2.93-18.63-7.4-19.16l5.39,11.12,2.01,8.04ZM397.76,320.53c.79-6.89,1.51-12.05-2.87-16.73-.89,2.44-1.17,6.99-.79,10.19l2.33-4.46c.12,4.56.3,7.25,1.33,11ZM367.73,308.85l-1.94-.58c-6.18,4.83-11.84,9.52-14.1,17.48,4.82-6.88,9.06-11.82,16.04-16.9ZM400.04,318.94c2.31-3.45,3.59-7.56.29-11.98l-.29,11.98ZM211.97,313.16l.91-2.79c-5.99,3.68-10.01,6.92-12.55,11.94l11.64-9.15ZM408.09,320.61c2.49-3.94,2.83-6.98,0-8.97v8.97ZM198.96,314.03l-.44.65.44-.65ZM403.17,323.85l.87-.54-.25-6.55-.87.54.25,6.55ZM211.76,319.51l.09-1.84c-5.87,2.74-9.91,7.11-12.52,13.08l12.43-11.24ZM405.47,319.82c-.03.59-.03,1.39,0,1.98.03-.59.03-1.39,0-1.98ZM416.46,320.8l-.5.5.5.5.5-.5-.5-.5ZM351.78,331.11l.94.79,5.58-9.41-.8-.68-5.73,9.31ZM354.41,334.58l9.09-11.69c-4.92,1.68-6.82,7.73-9.09,11.69ZM410.19,340.7c2.37-3.27,2.75-6.16,2.97-11.78l2.46,6,.08-11.4-2.65,5.11-.59-3.79-1.31.92-.97,14.94ZM211.93,325.89c-6.84.31-8.07,5.82-11.64,9.81l11.64-9.81ZM355.81,341.18l8.21-13.66c-3.42,3.24-9.13,8.61-8.21,13.66ZM254.54,342.25c3.17-4.52.88-8.8-1.52-12.55l1.52,12.55ZM259.01,330.09l-2.11.65c-.13,2.94,3.38,2.96,2.11-.65ZM211.83,332.45l-.95-1.52c-4.22,2.67-8.4,5.33-10.29,9.8l11.24-8.29ZM404.22,347l2.93-2.53-1.42-7.88-3.3,9.46c-1.22-4.71-.49-9.21.08-14.82-2.59,2.49-2.54,6.27-2.14,9.48l-1.53,5.08,3.2,6.74,2.19-5.53ZM267.67,332.78l-.5.5.5.5.5-.5-.5-.5ZM362.95,332.43l-2.91,4.85,1.62.97,2.91-4.85-1.62-.97ZM384.2,342.97c5.4-3.22,3.45-6.84.91-9.59l-.91,9.59ZM247.58,371.11c5.69-8.51,7.68-18.83,11.77-28.15,0,0,6.53-8.34,6.53-8.34-13.27,7-12.24,26.31-21.41,37.19,0,0-9,11.78-9,11.78l8.9-6.54c.56-1.94,1.64-4.02,3.21-5.95ZM211.02,338.56l.93-2.08-.98-.25c-3.58,3.26-8.49,4.56-9.86,10.09l9.91-7.76ZM251.74,342.74l-.87-6.99-1.95.15,2.62,12.97c2.23-1.72,1.67-4.17.2-6.13ZM363.39,343.96l4.22-8.28-3.16,2.48-4.59,8.51,3.67-1.93-.15-.79ZM287.24,336.58l-1.8.6,1.5,4.49,1.8-.6-1.5-4.49ZM282.12,337.78l1.58,2.06.52-1.68-2.1-.38ZM292.15,343.47c.98-2.48-.03-4.59-2.11-5.71l2.11,5.71ZM298.11,342.93l-3.65-5.05c.22,1.34.92,5.7,1.1,6.97l1.39.58,1.17-2.5ZM358.33,343.77c1.11-1.64,1.69-3.56,1.28-5.03l-1.28,5.03ZM380.93,349.56c3.34-3.93,3.33-6.76.74-9.86l-.74,9.86ZM300.07,344.26l-.09,3.22,3.46,1.77,2.22-.21c.08-1.2-1.94-7.17-2.31-8.4l.4,7.67c-1.31-.89-2.65-2.64-3.3-4.14l-.39.1ZM299.42,343.75l.2-1.67-.2,1.67ZM364.6,345.89l-4.22,8.09c3.46-3.49,5.84-7.56,7.2-12.49l-2.94,3.77-.04.63ZM210.06,345.48l1.72-1.29-.5-1.69c-3.36,2.09-5.82,3.38-8.28,7.04,2.58-.91,4.48-2.37,7.06-4.06ZM395.58,352.46l3.15,2.54c.1-4.56-.57-8.37-2.27-12.53-.2,3.46-2.15,11.48-2.23,14.67l1.35-4.68ZM314.01,351.68l-1.22-8.19c-2.09,3.06-.47,5.77,1.22,8.19ZM367.61,352.72c1.62-3.1,5.3-4.52,3.16-8.77l-7.72,13.77c2.04-1.26,3.15-2.63,4.56-5ZM311.06,352.46l-2.39-6.77c-1.41,2.6-.4,6.11,2.39,6.77ZM317.34,349.17l-1.25-4.15c-1.28,2.25-.82,3.65.29,4.74l.96-.59ZM323.28,354.2l-1.53-7.89c-2.46,2.89-.56,6.1.87,8.38l.66-.49ZM205.79,354.15c2.07-1.46,3.97-3.17,5.5-5.98-3.64,2.42-6.62,4.8-9.66,8.22l4.16-2.23ZM328.83,354.96l-2.31-7.27c-.82,2.71.02,6.01,1.75,8l.56-.73ZM359.54,347.77c-.03.59-.03,1.39,0,1.98.03-.59.03-1.39,0-1.98ZM371.39,356.52c2.05-3.08,3.61-5.92,3.46-8.83l-8.94,15.02c2.57-1.52,3.68-3.39,5.48-6.2ZM387.17,362.78c3.2-4.43,5.82-9.24,4.89-15.15-1.01,4.12-5.43,10.9-4.89,15.15ZM267.68,377.82c3.73-8.49,4.13-19.06,3.12-28.46l-1.91,4.11.58,12.13-2.17,8.08.38,4.14ZM277.42,360.54l.52-9.74c.57.38-.79-.53-1.82-1.22l.2,17.27c2.24-1.55,2.46-4.1,1.1-6.31ZM317.64,349.75l-.68.46-1.15,3.28,1.71.58.61-.82-.5-3.49ZM265.24,350.74l-.79,19.4,2.37.1.79-19.4-2.37-.1ZM273.33,374.69l1.07-12.93c.59-3.88,2.15-8.34-1.03-11.31l-.41,19.87c-1.36,1.23-2.65,3.26.36,4.37ZM338.17,362.56l-5.95-12.27c-1.29,5.26,1.73,10.19,5.95,12.27ZM341.01,357.86l-4.48-7.37,1.19,5.88,2.61,2.45.68-.96ZM352.25,358.19l-.38-7.69-5.47,18.87c-.18-.14.27.21,1.06.83l4.79-12.01ZM395.34,368.44c8.03-3.93,9.29-10.24,13.62-17.48-3.99,4.14-15.31,13.57-18.85,17.88l7.19-4.22-1.96,3.82ZM242.4,364.5c4.43-4.06,3.39-8.88,2.02-12.92l-2.02,12.92ZM411.46,351.75l-.5.5.5.5.5-.5-.5-.5ZM259.9,373.55l2.38-1.54-.22-19.35-.81.59c.03,5.03-.74,15.28-1.36,20.3ZM370.79,363.47c3.85-2.37,6.77-5.31,7.1-10.53l-7.1,10.53ZM319.02,353.67l-1.25.82,2.06,2.99-.81-3.81ZM341.03,353.76l1.58,2.06.52-1.68-2.1-.38ZM210.2,355.29c-2.88,1.32-5.86,3.96-8.86,7.11,3.11-1.53,6.22-2.79,8.86-7.11ZM323.82,354.99l-.75.99c.07,1.62.87,3.21,2.79,3.51l-2.05-4.5ZM234.52,373.57c3.73-6.1,7.12-10.48,5.48-18.05-1.31,4.49-4.07,13.63-5.48,18.05ZM329.54,355.75l-.77.54v2.99s3.02,1.53,3.02,1.53l-2.25-5.05ZM253.4,382.79c5.07-7.29,6.35-15.55,5.49-24.21l-1.59,4.1c-.17,7.24-2.03,13.13-3.91,20.11ZM341.58,358.86l-.86.4.41,3.71,1.56-2.37-1.11-1.75ZM232.64,368.86l1.16-6.63c-1.42,3.17-2.44,4.73-4.18,6.16l.73,1.8,1.24.4,1.04-1.74ZM202.43,366.58l3.84-3.48c-1.68-.74-3.98,1.29-3.84,3.48ZM255.22,369.13l-.44-5.21-1.89,3.52,2.32,1.69ZM210.89,385.66c8.25-4.31,13.92-12.24,15.61-20.88-4.68,7.96-9.8,13.87-15.61,20.88ZM398.05,374.47c3.53-2.06,5.77-4.67,6.55-8.13-3.58,2.24-5.55,4.87-6.55,8.13ZM203.91,375.82l1.13,1.18,7.27-6.74-.3-1.48-8.1,7.03ZM206.53,382.41c6.49-3.43,9.09-7.99,12.4-13.28l-2.73-.24-.28,2.29-9.39,11.23ZM252.71,373.97l1.75-2.88-1.7-1.52-4.41,13.52c3.36-2.16,3.69-5.78,4.36-9.12ZM352.17,370.86c.02-1.27-1.97-1.27-1.96,0-.02,1.27,1.97,1.27,1.96,0ZM206.12,371.72c.02-1.11-1.73-1.11-1.72,0-.02,1.11,1.73,1.11,1.72,0ZM230.35,373.63c.32-1.8-2.09-2.88-2.21-.63l-6.55,8.76.82,1.24,7.94-9.36ZM264.95,377.93l-.09-5.88c-1.9,2.76-2.36,5.47.09,5.88ZM352.11,377.45c2.34-2.68,2.57-3.75,2.51-5.3-2.58,2.03-3.52,3.78-2.51,5.3ZM404.13,374.93l-2.09-1.3-3.12,5.74,5.22-4.44ZM259.57,375.89c-.11-1.1-.14-1.48-.04-.43.24,2.59.26,2.76.04.43ZM374.09,376.03l-1.71-1.37c-3.15,2.88-4.94,4.47-6.35,7.96l8.06-6.6ZM352.68,384.81l4.55-8.74c-3.11,2-5.8,5.08-4.55,8.74ZM259.3,379.71c.02-1.44-2.25-1.44-2.22,0-.02,1.44,2.25,1.44,2.22,0ZM398.96,382.94c3.73,1.6,4.93-.74,4.53-4l-4.53,4ZM386.31,382.45c1.57-1.14,1.99-1.63,2.56-2.63l-2.56,2.63ZM374.71,381.69l-3.25-.17-6.36,8.79,9.62-8.62ZM353.51,388.52c2.77-2.11,4.06-4.02,4.44-6.81-2.4,1.77-4.12,4.3-4.44,6.81ZM388.86,393.28l2.83-10.4-4.77,5.46,1.95,4.95ZM358.38,396.02c.94-3.37.89-6.3.23-8.9-3.58,2.77-4.02,6.67-.23,8.9ZM367.09,394.78c2.83-1.1,4.46-3.39,5.58-6.73-2.34,1.36-4.37,3.51-5.58,6.73ZM391.35,396.63l-1.99,7.42c3.9-2.08,4.2-5.48,2.81-8.67l.7-5.36-4.63,6.06,1.19,1.36,1.92-.81ZM174.69,412.84c.95-.99.38-8.47.43-9.76,5.08-2.45,8.73-4.6,12.16-8.87l-9.6,4.98-4.15,4.29,1.16,9.37ZM367.02,399.47c2.92-.31,4.63-2.25,5.59-5.46l-5.59,5.46ZM237.36,397.86c.02-1.56-2.43-1.56-2.41,0-.02,1.56,2.43,1.56,2.41,0ZM357.62,406.85c2.11-2.22,3.54-6.15,2.03-9.26l-1.69.46c-1.2.79-.29,7.63-.34,8.8ZM195.27,404.38l-.51-5.13c-3.2,1.95-1.36,5.17.51,5.13ZM231.83,415.73c-1.95-2.08-2.04-4.45-.76-5.99l5.16-9.79-1.46-.04-6.72,10.21,3.39,9.64c1.23-1.03,1.28-2.57.38-4.03ZM372.88,402.85l.17-2.73h-.99c-.97.64-2.34,2.61-2.89,3.63l2.37.99,1.35-1.89ZM188.1,408.55l2.33-.23.61-6.94-2.94,7.17ZM391.38,411.87l3.55-9.5c-2.95,2.21-6.25,5.39-3.55,9.5ZM226.73,406.66l-.5.5.5.5.5-.5-.5-.5ZM181.8,408.67c-.03.59-.03,1.39,0,1.98.03-.59.03-1.39,0-1.98ZM360.84,418.06l-.32-9.54c-1.55,1.74-2.23,3.14-2.73,5.52l2.3,4.54.74-.52ZM369.48,414.02l5.03-4.83c-2.69.13-4.97,1.7-5.03,4.83ZM394.01,418.13c1.16-3.24,2.18-5.57,1.68-9.89l-4.1,8.5,1.69,2.24.73-.85ZM179.8,409.66l-.5.5.5.5.5-.5-.5-.5ZM183.99,447.99l-1.4-5.37,1.92-20.84c2.57-3.27,5.15-7.26,2.56-11.92l-1.29,7.31-2.16.25c.11,7.62-4.08,17.52-1.78,25.18-.57,2.15-.74,4.25,2.15,5.38ZM243.01,415.07l-3.49.04,4.61,6.4-1.12-6.44ZM368.51,421.1c2.72.38,4.68-1.71,4.25-4.65l-4.25,4.65ZM393.65,419.27l1.06,4.79,1.66-5.7c-.65-2.03-1.4-2.08-1.78.18l-.94.73ZM361.69,418.93l-.87.18-.46,4.67,1.34-4.85ZM392.49,423.65c-.03.59-.03,1.39,0,1.98.03-.59.03-1.39,0-1.98ZM178.32,431.63c3.01-1.9,3.19-5.29.33-7.65l-.33,7.65ZM248.19,427.53l-.5-2.49-1.95-.06-.6,2.11,2.22,1.24,1.31,2.31,1.54-1.53-2.02-1.57ZM360.58,424.57l-.23,4.04.23-4.04ZM241.44,425.57l1.19,3.07,1.28-1.08-.6-1.53-1.87-.46ZM235.72,427.63l-.5.5.5.5.5-.5-.5-.5ZM235.67,429.98c.04-.62-.08,1.27-.1,1.58l.1-1.58ZM245.45,431.35l1.36-1.33-1.36,1.33ZM236.86,431.69l-.1,1.58c-.04.62.08-1.27.1-1.58ZM246.67,432.59l-.03-.54c-.04-.79-.01-.23.03.54ZM239.89,433.91l-1.3.65-.15,1.66,1.3-.59.15-1.72ZM251.31,437.44l-1.77-4.01-.15,3.23,1.92.78ZM247.7,434.62l-.5.5.5.5.5-.5-.5-.5ZM399.85,440.82l4.14.18-2.51-6.49-.92,2.79-2.38-.58,1.68,4.1ZM178.51,441.66l.86-.55-.26-5.55-.88.55.27,5.55ZM240.65,435.65l-.49.77.34,3.5,1.51-2.19-1.36-2.08ZM252.54,437.4l-1.53,2.76,2.86.49c-.2-.87-.87-2.48-1.32-3.25ZM428.67,454.09c-.8-3.48-2.2-6.65-4.37-9.5l-2.71-.37-.29,1.05,5.38,5.58,1.48,3.33.52-.09ZM366.53,444.61c-.03.59-.03,1.39,0,1.98.03-.59.03-1.39,0-1.98ZM393.36,465.24c2.56-4.79-.7-9.81-5.2-10.16l3.59,5,1.61,5.16ZM198.52,464.79c1-4.72-2.96-9.15-7.18-9.27,3.06,2.76,4.71,5.16,7.18,9.27ZM384.55,465.6c1.28-4.07-.69-9.54-5.19-10.15l5.19,10.15ZM189.26,466.38c.18-2.03.08-4.48-.31-6.83-2-1.46-3.81-2.31-5.7-2.78,2.98,4.07,3.37,4.71,6.01,9.61ZM398.41,460.74c.4-2.53-.21-3.67-2.31-4.37l2.31,4.37ZM202.77,458.58l-.5.5.5.5.5-.5-.5-.5ZM380.51,462.58c-.03.59-.03,1.39,0,1.98.03-.59.03-1.39,0-1.98Z"/><path class="cls-1" d="M391.35,396.63l.82-1.25-.82,1.25Z"/><path class="cls-1" d="M404.22,347l-1.8-.95,1.8.95Z"/><polygon class="cls-1" points="369.11 461.01 367.94 459.1 368.83 458.33 369.11 461.01"/><path class="cls-1" d="M400.39,194.2c-.3.08-.84.21,1.99-.51l-.05,2.03-3.64.65-.4-2.32c-4.04,3.72-9.82,3.18-14.58,3.2,3.12-4.83,6.2-7.95,10.56-10.32,7.22-.83,11.39-4.83,18.2-8.97.67,7.04-.65,12.18-2.76,17.62l-2.38.74.03-2,1.29-2.11-4.49,2.99,1.52-5.77-5.29,4.78ZM408.47,189.03c-.03.59-.03,1.39,0,1.98.03-.59.03-1.39,0-1.98Z"/><path class="cls-1" d="M247.58,371.11c-1.56,1.93-2.65,4.01-3.21,5.95l-8.9,6.54,9-11.78c9.17-10.88,8.14-30.2,21.41-37.19l-6.53,8.34c-4.09,9.32-6.07,19.63-11.77,28.14Z"/><path class="cls-1" d="M183.99,447.99c-2.89-1.13-2.73-3.23-2.16-5.38-2.3-7.64,1.89-17.58,1.78-25.18l2.16-.25,1.29-7.31c2.59,4.66.02,8.65-2.56,11.92l-1.92,20.84,1.4,5.37Z"/><path class="cls-1" d="M395.34,368.44l1.96-3.82-7.19,4.22c3.47-4.24,14.92-13.8,18.85-17.88-4.32,7.23-5.6,13.55-13.62,17.48Z"/><path class="cls-1" d="M326.62,299.97c-3.97-4.97,8.85-21.89,13.4-24.38-5.73,8.33-9.97,15.62-13.4,24.38Z"/><path class="cls-1" d="M253.54,299.93l.47-11.43c2.84-4.15,2.12-9.53,6.98-12.72-2.16,5.92-5.99,18.05-7.45,24.15Z"/><path class="cls-1" d="M319.82,279.87l-11.24,18.48c.61-7.92,5.55-13,9.57-19.19l1.67.71Z"/><path class="cls-1" d="M410.19,340.7l.97-14.94,1.31-.92.59,3.79,2.65-5.11-.08,11.4-2.46-6c-.22,5.63-.6,8.51-2.97,11.78Z"/><path class="cls-1" d="M210.89,385.66c5.81-7.01,10.93-12.92,15.61-20.88-1.69,8.64-7.35,16.57-15.61,20.88Z"/><path class="cls-1" d="M283.13,276.76c-5.09,7.48-7.72,13.34-10.71,21.26-1.25-3.79,6.16-22.93,10.71-21.26Z"/><path class="cls-1" d="M379.57,284.77c-7.33-7.56-9.68-12.53-21.77-13.3l7.03-1.13c5.98,3.48,12.18,7.62,14.74,14.44Z"/><path class="cls-1" d="M402.43,346.05l1.8.95-2.19,5.53-3.2-6.74,1.53-5.08c-.4-3.22-.45-6.99,2.14-9.48-.57,5.62-1.3,10.12-.08,14.82Z"/><polygon class="cls-1" points="404.22 347 402.43 346.05 405.73 336.58 407.15 344.46 404.22 347"/><path class="cls-1" d="M267.68,377.82l-.38-4.14,2.17-8.08-.58-12.13,1.91-4.11c1.01,9.41.61,19.96-3.12,28.46Z"/><path class="cls-1" d="M231.83,415.73c.9,1.46.85,3-.38,4.03l-3.39-9.64,6.72-10.21,1.46.04-5.16,9.79c-1.28,1.54-1.19,3.91.76,5.99Z"/><path class="cls-1" d="M174.69,412.84l-1.16-9.37,4.15-4.29,9.6-4.98c-3.43,4.27-7.08,6.42-12.16,8.87-.05,1.34.52,8.74-.43,9.76Z"/><path class="cls-1" d="M301,276.49l-10.56,16.68c.86-6.9,4.63-11.27,8.12-16.99l2.44.32Z"/><path class="cls-1" d="M367.73,308.85c-6.98,5.08-11.22,10.02-16.04,16.9,2.26-7.96,7.92-12.65,14.1-17.48l1.94.58Z"/><path class="cls-1" d="M157.82,225.81c-3.1-5.44-4-11.24-1.7-16.94,1.71,5.87,2.53,11.2,1.7,16.94Z"/><path class="cls-1" d="M352.25,358.19l-4.79,12.01c-.79-.62-1.24-.98-1.06-.83l5.47-18.87.38,7.69Z"/><path class="cls-1" d="M390.11,322.31l-2.01-8.04-5.39-11.12c4.45.53,9.63,14.65,7.4,19.16Z"/><path class="cls-1" d="M248.12,299.06l-2.08-2,2.05-14.55,2.92-3.82c-.55,4.39-1.45,8-3.05,12.13l.16,8.25Z"/><path class="cls-1" d="M350.11,320.67l2.71-6.73c5.53-4.36,9.21-8.64,15.55-10.82-6.16,5.7-14.32,9.98-18.26,17.55Z"/><rect class="cls-1" x="256.32" y="359.3" width="19.42" height="2.37" transform="translate(-104.93 611.7) rotate(-87.68)"/><path class="cls-1" d="M219.87,241.45c-2.42-5.36-6.32-10.12-12.03-12.75l-.17-2c6.11,2.47,12.39,6.11,12.2,14.75Z"/><path class="cls-1" d="M237.98,301.59c-2.66-5.64-1.68-12.62,2.04-17.56l-2.04,17.56Z"/><path class="cls-1" d="M163.38,221.71c-2.89-4.76-3.91-10.6.52-14.96l-.52,14.96Z"/><path class="cls-1" d="M182.46,200.66l-9.89,15.03c2.95-9.86,2.15-8.98,9.31-16.52.72,1.77.86,2.12.58,1.49Z"/><path class="cls-1" d="M332.49,299.58l-1.15,9.78c-2.54-6.03-1.25-13.18,3.43-18.52.15,2.64-.89,5.67-2.28,8.74Z"/><path class="cls-1" d="M415.4,298.3c.53,3.83,1.3,7.39-.87,10.34l-1.54-19.94c2.55,2.47,2.39,5.86,2.41,9.6Z"/><path class="cls-1" d="M312.05,277.85c-5.01,7.09-7.95,12.16-11.3,19.01.77-7.76,4.87-13.32,9.35-19.27l1.95.26Z"/><path class="cls-1" d="M280.98,294.85c.68-8.37,4.43-15.77,10.07-20.56l-10.07,20.56Z"/><path class="cls-1" d="M397.76,320.53c-1.03-3.75-1.21-6.43-1.33-11l-2.33,4.46c-.38-3.21-.09-7.75.79-10.19,4.38,4.69,3.66,9.83,2.87,16.73Z"/><path class="cls-1" d="M264.08,298.56c-2.02-5.84,1.47-19.93,7.21-23.83l-4.75,11.96-2.46,11.88Z"/><polygon class="cls-1" points="198.73 203.56 184.61 213.35 191.97 204.66 198.73 203.56"/><path class="cls-1" d="M364.41,300.86l-12.69,9.93c2.38-4.99,6.62-7.86,11.19-10.94l1.5,1.01Z"/><path class="cls-1" d="M234.52,373.57c1.41-4.41,4.17-13.57,5.48-18.05,1.65,7.57-1.76,11.97-5.48,18.05Z"/><path class="cls-1" d="M253.4,382.79c1.87-6.97,3.74-12.86,3.91-20.11l1.59-4.1c.86,8.66-.43,16.92-5.49,24.21Z"/><path class="cls-1" d="M159.41,279.6c-4.79,4.78-11.17,3-15.54.19l15.54-.19Z"/><rect class="cls-1" x="398.98" y="278.87" width="2" height="17.97"/><path class="cls-1" d="M155.53,274.92l-10.41,1.52-6.03-3.94c4.14.34,12.42,1.49,16.44,2.42Z"/><path class="cls-1" d="M273.33,374.69c-3.02-1.11-1.73-3.13-.36-4.37l.41-19.87c3.18,2.97,1.61,7.43,1.03,11.31l-1.07,12.93Z"/><path class="cls-1" d="M412.56,233.26c2.97,2.52,5.82,4.66,8.27,8.37-3.91-2.21-6.48-5.11-10.07-9.17,3.21-.64,5.91-.99,9.33-.07l-7.54.87Z"/><path class="cls-1" d="M211.76,319.51l-12.43,11.24c2.6-5.97,6.65-10.34,12.52-13.08l-.09,1.84Z"/><path class="cls-1" d="M211.97,313.16l-11.64,9.15c2.54-5.02,6.55-8.26,12.55-11.94l-.91,2.79Z"/><path class="cls-1" d="M218.5,229.45c-5.1-2.72-8.68-4.38-14.19-6.49l6.28-.78c3.35,2.48,5.67,4.02,7.91,7.27Z"/><path class="cls-1" d="M206.53,382.41l9.39-11.23.28-2.29,2.73.24c-3.32,5.29-5.91,9.84-12.4,13.28Z"/><path class="cls-1" d="M154.31,288.4c-2.03-.13-4.36-.86-6.15-2.05l13.67-2.16.58,1.79-8.1,2.42Z"/><path class="cls-1" d="M387.17,362.78c-.54-4.24,3.9-11.06,4.89-15.15.92,5.91-1.7,10.72-4.89,15.15Z"/><path class="cls-1" d="M144,266.7l8.05,3.35c-6.15.03-11.45-1.06-15.63-5.95l7.58,2.61Z"/><path class="cls-1" d="M149.3,249.27c-4.74-.81-8.98-4.39-10.93-9.97l10.93,9.97Z"/><path class="cls-1" d="M211.83,332.45l-11.24,8.29c1.9-4.47,6.07-7.14,10.29-9.8l.95,1.52Z"/><path class="cls-1" d="M417.39,276.71l-4.22-16.4c4.15,4.59,5.14,10.61,4.22,16.4Z"/><path class="cls-1" d="M393.21,291.04l-.05-17.37c2.81,5.21,2.97,11.5.05,17.37Z"/><path class="cls-1" d="M410.54,280.98l-2.18-16.77c3.98,4.46,4.78,11.26,2.18,16.77Z"/><polygon class="cls-1" points="407.48 301.08 406.42 286.36 408.04 285.78 409.17 299.5 407.48 301.08"/><path class="cls-1" d="M185.59,206.86l-5.98,5.12c2.72-5.12,5.38-9.55,10.94-10.13l-4.96,5.01Z"/><path class="cls-1" d="M358.1,287.17l-9.95,6.51c2.33-4.01,6.14-6.63,10.75-9.19l1.37,2.04-2.17.64Z"/><path class="cls-1" d="M393.36,465.24l-1.61-5.16-3.59-5c4.5.35,7.76,5.37,5.2,10.16Z"/><path class="cls-1" d="M230.35,373.63l-7.94,9.36-.82-1.24,6.55-8.76c.12-2.24,2.53-1.17,2.21.63Z"/><path class="cls-1" d="M146.27,255.14c1.66.16,2.77,1.22.34,1.97-4.16-2.53-7.68-5.32-10.52-9.03,3.95,2.03,6.22,3.89,10.17,7.06Z"/><path class="cls-1" d="M419.39,298.05c-.82-4.74-1.03-8.85-.27-13.41,2.02,4.58,1.65,9.11.27,13.41Z"/><path class="cls-1" d="M371.39,356.52c-1.8,2.81-2.91,4.68-5.48,6.2l8.94-15.02c.15,2.91-1.4,5.75-3.46,8.83Z"/><path class="cls-1" d="M367.61,352.72c-1.41,2.37-2.52,3.74-4.56,5l7.72-13.77c2.14,4.25-1.54,5.66-3.16,8.77Z"/><path class="cls-1" d="M395.58,352.46l-1.35,4.68c.07-3.14,2.04-11.24,2.23-14.67,1.7,4.16,2.38,7.97,2.27,12.53l-3.15-2.54Z"/><path class="cls-1" d="M242.4,364.5l2.02-12.92c1.36,4.04,2.4,8.86-2.02,12.92Z"/><path class="cls-1" d="M382.5,213.85l-1.31-1.04c-2.33,1.41-3.68,3.69-7.08,2.74-1.36-1.57-1.75-3.76-.69-5.73l.73,3.65,3.31.94,1.83-4.16,3.72,3.14c.21.57,1.05,1.44,1.52,1.81l-.79,1.32-1.46-.66.79-1.41-.58-.6Z"/><path class="cls-1" d="M154.06,229.55c-2.95-3.89-5.92-9.03-3.29-14.83l3.29,14.83Z"/><path class="cls-1" d="M259.9,373.55c.62-5.03,1.39-15.26,1.36-20.3l.81-.59.22,19.35-2.38,1.54Z"/><path class="cls-1" d="M148.42,229.27l3.87,7.77c-4.51-2.57-6.36-6.24-7.82-11.18,1.58.77,2.72,1.91,3.95,3.41Z"/><path class="cls-1" d="M427.56,265.92l-5.48-14.66c3.48,3.87,6.09,9.12,5.48,14.66Z"/><path class="cls-1" d="M225.02,292.55l-1.87,8.89c-2.71-3.76-1.45-8.77,1.87-8.89Z"/><path class="cls-1" d="M189.26,466.38c-2.64-4.89-3.04-5.54-6.01-9.61,1.89.46,3.71,1.31,5.7,2.78.39,2.35.48,4.8.31,6.83Z"/><path class="cls-1" d="M277.42,360.54c1.36,2.21,1.15,4.76-1.1,6.31l-.2-17.27c1.02.69,2.39,1.6,1.82,1.22l-.52,9.74Z"/><polygon class="cls-1" points="374.71 381.69 365.09 390.31 371.46 381.52 374.71 381.69"/><path class="cls-1" d="M422.75,270.61l-5.6-15.22c3.75,3.82,5.8,9.12,5.6,15.22Z"/><path class="cls-1" d="M318.3,300.78c.05-7.48,4.91-20.81,12.35-24.03-5.15,7.14-9.79,15.39-12.35,24.03Z"/><path class="cls-1" d="M404.25,209.62c1.17-6.13,8.98-6.74,13.92-8.13-4.94,2.47-9.68,3.85-13.92,8.13Z"/><path class="cls-1" d="M360.1,418.58l-2.3-4.54c.49-2.38,1.17-3.77,2.73-5.52l.32,9.54.85.87-1.34,4.85.46-4.67-.72-.53Z"/><path class="cls-1" d="M356.97,281.68l-9.02,5.9c2.7-3.88,6.5-6.62,10.98-8.47l.7,2.55-2.66.02Z"/><path class="cls-1" d="M426.39,293.02l-1.9-4.99-.24-9.49c2.77,4.57,3.16,9.47,2.14,14.48Z"/><path class="cls-1" d="M211.02,338.56l-9.91,7.76c1.37-5.53,6.28-6.83,9.86-10.09l.98.25-.93,2.08Z"/><path class="cls-1" d="M360.94,291.23l-11.75,8.74c2.59-4.25,5.63-8.6,11.75-8.74Z"/><path class="cls-1" d="M147.65,242c-3.68-2.76-6.86-7.03-7.24-11.94.57.72,7.7,12.13,8.56,11.87l.12,1.07-1.44-1.01Z"/><path class="cls-1" d="M154.96,292.1l9.36-1.59c.97-1.56,3.87-2.66,6.07-1.43-4.88,2.67-9.04,6.41-15.43,3.02Z"/><path class="cls-1" d="M384.55,465.6l-5.19-10.15c4.5.61,6.47,6.08,5.19,10.15Z"/><path class="cls-1" d="M169.55,212.02c.02,4.03-.19,6.09-1.71,9-1.53-3.76-.54-7.56,1.08-11.04-.01-3.13.72-6.33,3.92-8.05l-1.84,8.87-1.44,1.22Z"/><path class="cls-1" d="M254.54,342.25l-1.52-12.55c2.39,3.75,4.69,8.03,1.52,12.55Z"/><path class="cls-1" d="M211.93,325.89l-11.64,9.81c3.59-4.02,4.77-9.49,11.64-9.81Z"/><path class="cls-1" d="M354.41,334.58c2.28-3.97,4.16-10,9.09-11.69l-9.09,11.69Z"/><path class="cls-1" d="M374.09,376.03l-8.06,6.6c1.41-3.49,3.2-5.08,6.35-7.96l1.71,1.37Z"/><path class="cls-1" d="M230.4,300.65c-1.89-4.26-1.39-8.15-.46-11.59l1.86-1.21,1.6.58-1.73,2.06-1.26,10.17Z"/><path class="cls-1" d="M251.74,342.74c1.47,1.96,2.03,4.41-.2,6.13l-2.62-12.97,1.95-.15.87,6.99Z"/><path class="cls-1" d="M338.17,362.56c-4.21-2.08-7.24-7.01-5.95-12.27l5.95,12.27Z"/><path class="cls-1" d="M370.79,363.47l7.1-10.53c-.32,5.23-3.25,8.16-7.1,10.53Z"/><polygon class="cls-1" points="389.06 282.37 387.08 283.98 386.9 272.59 388.92 270.72 389.06 282.37"/><path class="cls-1" d="M363.07,296.04l-12.27,8.8c1.6-5.32,6.92-8.77,12.27-8.8Z"/><path class="cls-1" d="M212.75,219.05c-1.38-.09-8.16-.31-9.35-.67l.38-1.97c3.43.1,5.85-.32,8.98,2.64Z"/><polygon class="cls-1" points="210.28 213.76 197.24 214.59 201.35 211.96 210.97 211.98 212.24 213.62 210.28 213.76"/><path class="cls-1" d="M363.54,344.75l-3.67,1.93,4.59-8.51,3.16-2.48-4.22,8.28,1.25,1.3,2.94-3.77c-1.36,4.93-3.74,9-7.2,12.49l4.22-8.09-1.06-1.14Z"/><path class="cls-1" d="M198.52,464.79c-2.47-4.11-4.12-6.52-7.18-9.27,4.21.12,8.17,4.56,7.18,9.27Z"/><polygon class="cls-1" points="399.85 440.82 398.17 436.72 400.56 437.3 401.48 434.51 403.99 441 399.85 440.82"/><path class="cls-1" d="M187.76,297.2c-2.45,2.37-4.34,4.49-8.26,5.62l6.15-6.61,2.11-.38v1.37Z"/><path class="cls-1" d="M136.62,257.89c.03-.38.21-2.39.14-1.61.21,1.38,10.33,5.57,11.43,6.22-5.75,1.24-8.05-2.05-11.58-4.61Z"/><path class="cls-1" d="M210.06,345.48c-2.58,1.69-4.48,3.15-7.06,4.06,2.46-3.66,4.92-4.95,8.28-7.04l.5,1.69-1.72,1.29Z"/><path class="cls-1" d="M252.71,373.97c-.67,3.34-1,6.96-4.36,9.12l4.41-13.52,1.7,1.52-1.75,2.88Z"/><path class="cls-1" d="M167.1,296.12l-3.52,2.54.49-2.28c1.11-.11,9.94-4.51,11.16-5.06-1.3,2.96-4.41,5.6-8.13,4.79Z"/><path class="cls-1" d="M300.46,344.16c.65,1.51,1.99,3.26,3.3,4.14l-.4-7.67c.37,1.27,2.38,7.17,2.31,8.4l-2.22.21-3.46-1.77.09-3.22-.65-.51.2-1.67.84,2.09Z"/><path class="cls-1" d="M402.04,262.07l-2.17-10.31c2.54,3.44,2.87,6.8,2.17,10.31Z"/><path class="cls-1" d="M391.38,411.87c-2.71-4.11.6-7.29,3.55-9.5l-3.55,9.5Z"/><path class="cls-1" d="M424.6,231.35c-5.22.06-9.7-2.45-13-6.67l13,6.67Z"/><path class="cls-1" d="M393.28,418.98l-1.69-2.24,4.1-8.5c.5,4.31-.53,6.64-1.68,9.89l.58.41c.38-2.26,1.13-2.22,1.78-.18l-1.66,5.7-1.06-4.79-.37-.29Z"/><path class="cls-1" d="M414.07,209.64l-2.61.49-1.43-3.2c4.38-1.86,9.08-4.15,11.59-.33-.7.04-1.89-.56-2.44-.95-1.64.55-4.05,2.26-5.11,3.99ZM412.4,208.38c2,1.42,2.12,1.04,1-.82l-1,.82Z"/><polygon class="cls-1" points="392.46 249.53 391.84 251.89 385.45 241.92 392.46 249.53"/><path class="cls-1" d="M173.19,298.6l8.04-4.66c-.62,3.15-3.05,6.53-8.04,4.66Z"/><path class="cls-1" d="M367.99,246.76l5.41-2.07,1.33-5.85c.38,2.53.46,4.67-.02,7.1-2.6,1.03-4.48,1.25-6.72.82Z"/><path class="cls-1" d="M400.04,318.94l.29-11.98c3.3,4.42,2.02,8.52-.29,11.98Z"/><path class="cls-1" d="M357.62,406.85c.06-1.21-.87-7.97.34-8.8l1.69-.46c1.51,3.11.08,7.04-2.03,9.26Z"/><path class="cls-1" d="M380.93,349.56l.74-9.86c2.59,3.1,2.6,5.93-.74,9.86Z"/><polygon class="cls-1" points="392.17 395.38 391.35 396.63 389.43 397.45 388.23 396.09 392.87 390.03 392.17 395.38"/><path class="cls-1" d="M391.35,396.63l.82-1.25c1.39,3.18,1.09,6.59-2.81,8.67l1.99-7.42Z"/><path class="cls-1" d="M397.56,248.41l-9.05-9.08c4.54,1.09,8.38,3.91,9.05,9.08Z"/><path class="cls-1" d="M232.64,368.86l-1.04,1.74-1.24-.4-.73-1.8c1.73-1.43,2.75-3,4.18-6.16l-1.16,6.63Z"/><path class="cls-1" d="M407.95,256.52l-2.8-1.23-2.8-6.69c3.13,1.68,4.73,4.4,5.6,7.91Z"/><path class="cls-1" d="M398.05,374.47c1.01-3.26,2.97-5.89,6.55-8.13-.78,3.46-3.03,6.07-6.55,8.13Z"/><path class="cls-1" d="M358.38,396.02c-3.79-2.22-3.35-6.13.23-8.9.66,2.6.71,5.53-.23,8.9Z"/><path class="cls-1" d="M397.08,262.67c-2.15-2.44-3.19-5.43-1.6-9.02.97,3.02,1.42,5.41,1.6,9.02Z"/><polygon class="cls-1" points="177.01 280.79 170.34 278.85 169.35 277.08 171.21 275.76 177.01 280.79"/><path class="cls-1" d="M382.33,277.72c-.44-3.08.03-6.4,2.02-10.14.18,3.31-.37,5.73-2.02,10.14Z"/><path class="cls-1" d="M431.13,255.55c0,1.42-2.61,1.81-1.95-.09l-3.39-7.97,1.22-.89,4.12,8.95Z"/><path class="cls-1" d="M392.02,306.57c-1.81-1.93-2.01-5.08-.58-7.46.83,2.23,1.18,3.96.58,7.46Z"/><polygon class="cls-1" points="382.2 263.87 378.27 272.02 379.93 263.11 382.2 263.87"/><path class="cls-1" d="M367.09,394.78c1.2-3.22,3.24-5.37,5.58-6.73-1.11,3.34-2.75,5.63-5.58,6.73Z"/><path class="cls-1" d="M210.2,355.29c-2.64,4.32-5.74,5.58-8.86,7.11,3-3.15,5.98-5.8,8.86-7.11Z"/><path class="cls-1" d="M340.33,358.82l-2.61-2.45-1.19-5.88c1.24,2,4.96,8.25,6.16,10.13l-1.56,2.37-.41-3.71-.39-.45Z"/><path class="cls-1" d="M322.62,354.7c-1.43-2.29-3.32-5.5-.87-8.38l1.53,7.89c.46.39,2.3,4.67,2.59,5.28-2.69-.37-2.53-2.91-3.25-4.79Z"/><path class="cls-1" d="M205.79,354.15l-4.16,2.23c3.04-3.41,6.02-5.8,9.66-8.22-1.53,2.81-3.44,4.52-5.5,5.98Z"/><path class="cls-1" d="M384.2,342.97l.91-9.59c2.54,2.75,4.49,6.37-.91,9.59Z"/><polygon class="cls-1" points="186.53 302.85 193.1 297.2 193.24 298.53 187.93 303.88 186.53 302.85"/><path class="cls-1" d="M166.15,258.45c-3.04-1.14-5.16-2.91-5.46-6.18l5.46,6.18Z"/><polygon class="cls-1" points="388.86 393.28 386.91 388.34 391.69 382.88 388.86 393.28"/><path class="cls-1" d="M199.85,209.43l-8.15,4.24c.56-3.66,4.24-4.96,8.15-4.24Z"/><path class="cls-1" d="M174.55,232.56c-2.82-3.78.07-6.54,2.54-8.51l-2.54,8.51Z"/><path class="cls-1" d="M413.61,250.77l-4.83-7.57c3.4,1.57,5.03,4.08,4.83,7.57Z"/><path class="cls-1" d="M358.25,276.27l-7.76,4.03c.27-3.26,4.08-4.92,7.76-4.03Z"/><path class="cls-1" d="M367.02,399.47l5.59-5.46c-.96,3.21-2.68,5.16-5.59,5.46Z"/><path class="cls-1" d="M353.51,388.52c.32-2.51,2.04-5.04,4.44-6.81-.37,2.79-1.67,4.7-4.44,6.81Z"/><path class="cls-1" d="M352.11,377.45c-1.01-1.52-.07-3.27,2.51-5.3.06,1.54-.17,2.61-2.51,5.3Z"/><path class="cls-1" d="M314.01,351.68c-1.69-2.41-3.31-5.13-1.22-8.19l1.22,8.19Z"/><path class="cls-1" d="M355.81,341.18c-.91-5.05,4.79-10.41,8.21-13.66l-8.21,13.66Z"/><path class="cls-1" d="M215.33,304.68l-8.19,5.18c.93-1.18,4.81-6.27,5.8-7.22l2.39,2.04Z"/><path class="cls-1" d="M187.02,287.83c-2.57-.16-5.57-.83-9.01-2.16,2.95-1.57,5.5-.89,9.01,2.16Z"/><path class="cls-1" d="M398.96,382.94l4.53-4c.4,3.26-.8,5.6-4.53,4Z"/><polygon class="cls-1" points="404.13 374.93 398.92 379.37 402.04 373.63 404.13 374.93"/><path class="cls-1" d="M417,243.61c-2.96.43-5.32-1.52-5.54-5.14l5.54,5.14Z"/><path class="cls-1" d="M405.47,274.96c-1.02-2.98-1.42-5.08-.52-7.7,1.87,2.63,1.55,5.28.52,7.7Z"/><path class="cls-1" d="M213.05,253.1l-.24-8.82c2.59,2.69,3.01,5.86.24,8.82Z"/><path class="cls-1" d="M359.94,222.89c-3.45-.95-6.17-3.66-6.3-7.54l6.3,7.54Z"/><path class="cls-1" d="M408.09,320.61v-8.97c2.83,1.99,2.49,5.02,0,8.97Z"/><path class="cls-1" d="M170.13,236.2c-1.31-2.59-1.34-5.77.63-8.43.8,2.34.88,5.07-.63,8.43Z"/><path class="cls-1" d="M298.11,342.93l-1.17,2.5-1.39-.58c-.17-1.25-.88-5.65-1.1-6.97l3.65,5.05Z"/><path class="cls-1" d="M387.2,214.01c-1.79-1.31-3.57-2.91-4.83-4.73,2.98,1.35,4.69,2.64,6.17,4.72l1.56.36-.5,1.29c-.58-.44-1.78-1.27-2.41-1.64Z"/><path class="cls-1" d="M171.99,273.56c-3.22,1.71-5.37-.02-6.62-3.01l6.62,3.01Z"/><path class="cls-1" d="M328.26,355.69c-1.73-2-2.57-5.29-1.75-8l2.31,7.27c.71.3,2.61,5.17,2.97,5.85l-3.02-1.53v-2.99s-.51-.6-.51-.6Z"/><path class="cls-1" d="M379.1,207.84l-7.73-.17c2.45-2.98,5.65-2.53,7.73.17Z"/><path class="cls-1" d="M178.32,431.63l.33-7.65c2.86,2.36,2.68,5.75-.33,7.65Z"/><polygon class="cls-1" points="243.01 415.07 244.12 421.51 239.52 415.11 243.01 415.07"/><path class="cls-1" d="M352.68,384.81c-1.26-3.66,1.44-6.74,4.55-8.74l-4.55,8.74Z"/><path class="cls-1" d="M210.48,234.71l.55-.5c.52.51,1.19,1.29,1.85,1.63,0,0,4.52,5.56,4.52,5.56l-1.71,1.53c-1.12-2.34-3.16-6.56-5.22-8.23Z"/><path class="cls-1" d="M372.88,402.85l-1.35,1.89-2.37-.99c.56-1.03,1.92-2.98,2.89-3.64h.99s-.17,2.74-.17,2.74Z"/><polygon class="cls-1" points="203.91 375.82 212 368.79 212.31 370.27 205.04 377.01 203.91 375.82"/><path class="cls-1" d="M167.89,268.26c-2.28.46-4.63-.4-5.17-3.51,1.52.66,2.3,1.15,5.17,3.51Z"/><path class="cls-1" d="M388.89,253.34c-2.03-.59-3.2-1.74-3.43-5.21l3.43,5.21Z"/><polygon class="cls-1" points="184.02 227.95 182.91 225.96 185.57 223.83 187.02 225.93 184.02 227.95"/><path class="cls-1" d="M394.51,236.97l-1.59-.48.52-1.61,1.56.5.48,1.58c2.05.82,4.24,1.5,4.58,4.89-.64-.6-5.67-3.83-5.55-4.87Z"/><path class="cls-1" d="M311.06,352.46c-2.79-.66-3.8-4.17-2.39-6.77l2.39,6.77Z"/><polygon class="cls-1" points="188.1 408.55 191.04 401.38 190.43 408.32 188.1 408.55"/><path class="cls-1" d="M207.11,208.65l-7.27,1.28c1.16-3.01,4.84-3.41,7.27-1.28Z"/><polygon class="cls-1" points="248.19 427.53 250.21 429.1 248.67 430.64 247.35 428.33 245.13 427.09 245.73 424.98 247.68 425.04 248.19 427.53"/><rect class="cls-1" x="366.09" y="232.6" width="1.88" height="6.68" transform="translate(-69.09 222.49) rotate(-30.97)"/><path class="cls-1" d="M178.46,230.06c-.17-2.68.78-4.7,2.68-6.21.18,2.68-.77,4.71-2.68,6.21Z"/><path class="cls-1" d="M336.91,213.88c-1.56-1.75-3.27-4.12-.24-6.57l.24,6.57Z"/><path class="cls-1" d="M344.67,237.43l-3.09,1.97c-1.92-.74-2.76-1.11-4.16-2l7.25.03Z"/><rect class="cls-1" x="408.03" y="247.58" width="1.88" height="6.68" transform="translate(-70.82 246.21) rotate(-30.97)"/><polygon class="cls-1" points="167.25 241.27 165.06 238.58 167.08 234.83 167.25 241.27"/><rect class="cls-1" x="359.47" y="334.4" width="5.65" height="1.88" transform="translate(-111.64 473.51) rotate(-59.04)"/><path class="cls-1" d="M264.95,377.93c-2.45-.41-1.99-3.12-.09-5.88l.09,5.88Z"/><path class="cls-1" d="M195.27,404.38c-1.88.05-3.72-3.18-.51-5.13l.51,5.13Z"/><polygon class="cls-1" points="383.94 227.91 379.49 228.47 378.66 230.82 376.74 229.29 378.19 227.32 380.75 226.11 383.94 227.91"/><path class="cls-1" d="M368.51,421.1l4.25-4.65c.43,2.93-1.53,5.02-4.25,4.65Z"/><path class="cls-1" d="M375.42,265.93c-1.17-2.68.33-5.57,2.84-5.75l-2.84,5.75Z"/><path class="cls-1" d="M166.47,262.56c-2.68.46-5.45-1-4.91-4.12l4.91,4.12Z"/><polygon class="cls-1" points="255.22 369.13 252.89 367.44 254.78 363.92 255.22 369.13"/><polygon class="cls-1" points="212.38 218.09 215.92 218.98 216.27 221.64 214.4 221.24 212.38 218.09"/><polygon class="cls-1" points="217.66 248.33 216.41 242.6 219.28 245.03 217.66 248.33"/><path class="cls-1" d="M316.39,349.76c-1.1-1.09-1.57-2.49-.29-4.74.66,2.19,1.94,5.92,2.04,8.22l.89.42.81,3.81c-.16-.24-2.27-3.26-2.31-3.41l-1.71-.58,1.15-3.28-.58-.45Z"/><rect class="cls-1" x="286.15" y="336.76" width="1.89" height="4.74" transform="translate(-92.52 108.21) rotate(-18.44)"/><path class="cls-1" d="M292.15,343.47l-2.11-5.71c2.08,1.12,3.09,3.23,2.11,5.71Z"/><path class="cls-1" d="M369.48,414.02c.06-3.14,2.34-4.7,5.03-4.83l-5.03,4.83Z"/><polygon class="cls-1" points="351.78 331.11 357.5 321.8 358.3 322.48 352.72 331.89 351.78 331.11"/><polygon class="cls-1" points="403.17 323.85 402.92 317.3 403.78 316.76 404.03 323.31 403.17 323.85"/><path class="cls-1" d="M202.43,366.58c-.14-2.19,2.16-4.22,3.84-3.48l-3.84,3.48Z"/><path class="cls-1" d="M398.84,235.78c-2.19.14-4.22-2.16-3.48-3.84l3.48,3.84Z"/><path class="cls-1" d="M259.01,330.09c1.27,3.62-2.24,3.6-2.11.65l2.11-.65Z"/><path class="cls-1" d="M420.73,226.05l-4.98-1.66c2.22-.49,3.34-.12,4.98,1.66Z"/><polygon class="cls-1" points="178.51 441.66 178.24 436.11 179.12 435.56 179.37 441.11 178.51 441.66"/><path class="cls-1" d="M398.41,460.74l-2.31-4.37c2.1.71,2.71,1.84,2.31,4.37Z"/><path class="cls-1" d="M252.54,437.4c.45.77,1.13,2.38,1.32,3.25l-2.86-.49,1.53-2.76Z"/><polygon class="cls-1" points="143.5 222.01 146.2 222.91 145.63 225.58 143.5 222.01"/><path class="cls-1" d="M239.74,435.63l-1.3.59.15-1.66,1.3-.65c.33,1.03,1.48,2.95,2.12,3.82l-1.51,2.19c-.1-.67-.21-3.82-.76-4.3Z"/><polygon class="cls-1" points="251.31 437.44 249.39 436.65 249.54 433.42 251.31 437.44"/><polygon class="cls-1" points="241.44 425.57 243.31 426.03 243.91 427.56 242.63 428.64 241.44 425.57"/><path class="cls-1" d="M173.42,300.84c.02,1.44-2.25,1.44-2.22,0-.02-1.44,2.25-1.44,2.22,0Z"/><path class="cls-1" d="M351.55,218.82l-3.17-.03.02-1.25,2.44-1.3c.37.6,1.46,2.45,1.9,2.96l-.46.57-.74-.95Z"/><path class="cls-1" d="M259.3,379.71c.02,1.44-2.25,1.44-2.22,0-.02-1.44,2.25-1.44,2.22,0Z"/><path class="cls-1" d="M237.36,397.86c.02,1.56-2.43,1.56-2.41,0-.02-1.56,2.43-1.56,2.41,0Z"/><path class="cls-1" d="M360.36,428.61l.23-4.04-.23,4.04Z"/><path class="cls-1" d="M357.82,235.82l-3.12-.89c.56-.58,1.24-.4,3.12.89Z"/><polygon class="cls-1" points="383.02 224.94 385.02 225.35 386 226.53 384.46 227.03 383.02 224.94"/><polygon class="cls-1" points="282.12 337.78 284.22 338.16 283.7 339.84 282.12 337.78"/><polygon class="cls-1" points="374.85 203 377.03 203.39 375.67 204.71 374.85 203"/><polygon class="cls-1" points="213.22 213.98 215.32 214.36 214.8 216.04 213.22 213.98"/><polygon class="cls-1" points="349.63 236.02 351.83 233.99 351.72 236.14 349.13 236.76 348.6 236 346.32 237.78 347.53 234.88 349.08 235.37 349.63 236.02"/><path class="cls-1" d="M259.53,375.46c.24,2.59.26,2.76.04.43-.11-1.1-.14-1.48-.04-.43Z"/><polygon class="cls-1" points="341.03 353.76 343.13 354.13 342.61 355.82 341.03 353.76"/><path class="cls-1" d="M342.18,221.11c.02,1.27-1.97,1.27-1.96,0-.02-1.27,1.97-1.27,1.96,0Z"/><path class="cls-1" d="M358.33,343.77l1.28-5.03c.4,1.47-.18,3.4-1.28,5.03Z"/><path class="cls-1" d="M386.31,382.45l2.56-2.63c-.58,1-.99,1.49-2.56,2.63Z"/><polygon class="cls-1" points="194.24 299.84 196.34 300.22 195.83 301.9 194.24 299.84"/><path class="cls-1" d="M352.17,370.86c.02,1.27-1.97,1.27-1.96,0-.02-1.27,1.97-1.27,1.96,0Z"/><path class="cls-1" d="M212.6,254.66c.24,2.59.26,2.76.04.43-.11-1.1-.14-1.48-.04-.43Z"/><path class="cls-1" d="M392.49,423.65c.03.59.03,1.39,0,1.98-.03-.59-.03-1.39,0-1.98Z"/><path class="cls-1" d="M359.54,347.77c.03.59.03,1.39,0,1.98-.03-.59-.03-1.39,0-1.98Z"/><path class="cls-1" d="M419.61,201.48c.33,0,1,0,1.33.02-.59.03-1.39.03-1.98,0l.65-.02Z"/><path class="cls-1" d="M235.57,431.56c.02-.3.14-2.2.1-1.58l1.19,1.71c-.02.3-.14,2.2-.1,1.58l-1.19-1.71Z"/><path class="cls-1" d="M139.86,220.98c.03.59.03,1.39,0,1.98-.03-.59-.03-1.39,0-1.98Z"/><path class="cls-1" d="M427.44,241.94c.03.59.03,1.39,0,1.98-.03-.59-.03-1.39,0-1.98Z"/><path class="cls-1" d="M366.53,444.61c.03.59.03,1.39,0,1.98-.03-.59-.03-1.39,0-1.98Z"/><path class="cls-1" d="M380.51,462.58c.03.59.03,1.39,0,1.98-.03-.59-.03-1.39,0-1.98Z"/><path class="cls-1" d="M181.8,408.67c.03.59.03,1.39,0,1.98-.03-.59-.03-1.39,0-1.98Z"/><path class="cls-1" d="M405.47,319.82c.03.59.03,1.39,0,1.98-.03-.59-.03-1.39,0-1.98Z"/><polygon class="cls-1" points="417.45 207.86 417.95 208.49 417.45 208.99 416.55 208.49 417.45 207.86"/><rect class="cls-1" x="370.17" y="206.14" width=".71" height=".71" transform="translate(-37.48 322.51) rotate(-45)"/><rect class="cls-1" x="342.21" y="205.14" width=".71" height=".71" transform="translate(-44.96 302.45) rotate(-45)"/><polygon class="cls-1" points="429.44 203.99 430 204.49 429.44 204.99 428.94 204.49 429.44 203.99"/><rect class="cls-1" x="179.45" y="409.81" width=".71" height=".71" transform="translate(-237.38 247.31) rotate(-45)"/><rect class="cls-1" x="334.22" y="202.14" width=".71" height=".71" transform="translate(-45.18 295.92) rotate(-45)"/><rect class="cls-1" x="422.09" y="200.15" width=".71" height=".71" transform="translate(-18.03 357.48) rotate(-45)"/><path class="cls-1" d="M206.12,371.72c.02,1.11-1.73,1.11-1.72,0-.02-1.11,1.73-1.11,1.72,0Z"/><rect class="cls-1" x="416.1" y="320.95" width=".71" height=".71" transform="translate(-105.21 388.63) rotate(-45)"/><rect class="cls-1" x="235.37" y="427.78" width=".71" height=".71" transform="translate(-233.7 292.12) rotate(-45)"/><path class="cls-1" d="M245.45,431.35l1.36-1.33-.17,2.03c-.04-.79-.01-.23.03.54l-1.22-1.24Z"/><rect class="cls-1" x="247.35" y="434.77" width=".71" height=".71" transform="translate(-235.14 302.64) rotate(-45)"/><rect class="cls-1" x="334.22" y="237.09" width=".71" height=".71" transform="translate(-69.89 306.16) rotate(-45)"/><rect class="cls-1" x="353.19" y="235.09" width=".71" height=".71" transform="translate(-62.92 318.99) rotate(-45)"/><rect class="cls-1" x="411.11" y="351.9" width=".71" height=".71" transform="translate(-128.56 394.17) rotate(-45)"/><rect class="cls-1" x="206.41" y="260.05" width=".71" height=".71" transform="translate(-123.58 222.5) rotate(-45)"/><rect class="cls-1" x="375.16" y="227.1" width=".71" height=".71" transform="translate(-50.84 332.19) rotate(-45)"/><rect class="cls-1" x="202.41" y="458.73" width=".71" height=".71" transform="translate(-265.24 277.88) rotate(-45)"/><rect class="cls-1" x="267.32" y="332.93" width=".71" height=".71" transform="translate(-157.27 286.93) rotate(-45)"/><rect class="cls-1" x="386.15" y="223.11" width=".71" height=".71" transform="translate(-44.8 338.78) rotate(-45)"/><rect class="cls-1" x="226.38" y="406.81" width=".71" height=".71" transform="translate(-221.51 279.62) rotate(-45)"/><path class="cls-1" d="M408.47,189.03c.03.59.03,1.39,0,1.98-.03-.59-.03-1.39,0-1.98Z"/></svg>